# Blender v2.78 (sub 0) OBJ File: 'ship.blend'
# www.blender.org
mtllib ship.mtl
o Cylinder
v -0.000000 -7.312500 -41.750000
v 0.000000 -8.250000 -34.250000
v -0.548692 -7.258459 -41.750000
v -0.731589 -8.177944 -34.250000
v -1.076297 -7.098412 -41.750000
v -1.435063 -7.964548 -34.250000
v -1.562541 -6.838509 -41.750000
v -2.083388 -7.618011 -34.250000
v -1.988738 -6.488738 -41.750000
v -2.651650 -7.151650 -34.250000
v -2.338509 -6.062541 -41.750000
v -3.118011 -6.583388 -34.250000
v -2.598411 -5.576298 -41.750000
v -3.464548 -5.935063 -34.250000
v -2.758459 -5.048692 -41.750000
v -3.677945 -5.231589 -34.250000
v -2.812500 -4.500000 -41.750000
v -3.750000 -4.500000 -34.250000
v -2.758459 -3.951309 -41.750000
v -3.677945 -3.768412 -34.250000
v -2.598412 -3.423704 -41.750000
v -3.464548 -3.064938 -34.250000
v -2.338509 -2.937459 -41.750000
v -3.118011 -2.416612 -34.250000
v -1.988738 -2.511263 -41.750000
v -2.651650 -1.848349 -34.250000
v -1.562541 -2.161492 -41.750000
v -2.083388 -1.381989 -34.250000
v -1.076297 -1.901589 -41.750000
v -1.435062 -1.035451 -34.250000
v -0.548691 -1.741542 -41.750000
v -0.731588 -0.822055 -34.250000
v 0.000001 -1.687501 -41.750000
v 0.000001 -0.750000 -34.250000
v 0.548693 -1.741542 -41.750000
v 0.731590 -0.822055 -34.250000
v 1.076298 -1.901590 -41.750000
v 1.435065 -1.035452 -34.250000
v 1.562543 -2.161493 -41.750000
v 2.083390 -1.381990 -34.250000
v 1.988739 -2.511264 -41.750000
v 2.651652 -1.848351 -34.250000
v 2.338509 -2.937461 -41.750000
v 3.118012 -2.416614 -34.250000
v 2.598412 -3.423706 -41.750000
v 3.464550 -3.064940 -34.250000
v 2.758459 -3.951311 -41.750000
v 3.677945 -3.768414 -34.250000
v 2.812500 -4.500003 -41.750000
v 3.750000 -4.500003 -34.250000
v 2.758458 -5.048695 -41.750000
v 3.677944 -5.231592 -34.250000
v 2.598410 -5.576301 -41.750000
v 3.464547 -5.935067 -34.250000
v 2.338506 -6.062545 -41.750000
v 3.118009 -6.583392 -34.250000
v 1.988735 -6.488741 -41.750000
v 2.651647 -7.151653 -34.250000
v 1.562538 -6.838511 -41.750000
v 2.083384 -7.618013 -34.250000
v 1.076293 -7.098413 -41.750000
v 1.435058 -7.964550 -34.250000
v 0.548687 -7.258460 -41.750000
v 0.731583 -8.177946 -34.250000
v -0.000000 -6.750001 -41.750000
v -0.438953 -6.706768 -41.750000
v -0.861038 -6.578730 -41.750000
v -1.250033 -6.370808 -41.750000
v -1.590991 -6.090991 -41.750000
v -1.870807 -5.750033 -41.750000
v -2.078729 -5.361038 -41.750000
v -2.206767 -4.938954 -41.750000
v -2.250000 -4.500001 -41.750000
v -2.206767 -4.061048 -41.750000
v -2.078729 -3.638963 -41.750000
v -1.870807 -3.249968 -41.750000
v -1.590991 -2.909010 -41.750000
v -1.250033 -2.629194 -41.750000
v -0.861038 -2.421271 -41.750000
v -0.438953 -2.293234 -41.750000
v 0.000001 -2.250001 -41.750000
v 0.438954 -2.293234 -41.750000
v 0.861039 -2.421272 -41.750000
v 1.250034 -2.629194 -41.750000
v 1.590991 -2.909011 -41.750000
v 1.870808 -3.249969 -41.750000
v 2.078730 -3.638965 -41.750000
v 2.206767 -4.061049 -41.750000
v 2.250000 -4.500003 -41.750000
v 2.206766 -4.938956 -41.750000
v 2.078728 -5.361041 -41.750000
v 1.870805 -5.750036 -41.750000
v 1.590988 -6.090993 -41.750000
v 1.250030 -6.370809 -41.750000
v 0.861035 -6.578731 -41.750000
v 0.438950 -6.706768 -41.750000
v -0.000000 -6.750001 -39.838055
v -0.438953 -6.706768 -39.838055
v -0.861038 -6.578730 -39.838055
v -1.250033 -6.370808 -39.838055
v -1.590991 -6.090991 -39.838055
v -1.870807 -5.750034 -39.838055
v -2.078729 -5.361038 -39.838055
v -2.206767 -4.938954 -39.838055
v -2.250000 -4.500001 -39.838055
v -2.206767 -4.061048 -39.838055
v -2.078729 -3.638963 -39.838055
v -1.870807 -3.249968 -39.838055
v -1.590991 -2.909010 -39.838055
v -1.250033 -2.629194 -39.838055
v -0.861038 -2.421271 -39.838055
v -0.438953 -2.293234 -39.838055
v 0.000001 -2.250000 -39.838055
v 0.438954 -2.293234 -39.838055
v 0.861039 -2.421272 -39.838055
v 1.250034 -2.629195 -39.838055
v 1.590991 -2.909011 -39.838055
v 1.870808 -3.249969 -39.838055
v 2.078730 -3.638965 -39.838055
v 2.206767 -4.061049 -39.838055
v 2.250000 -4.500003 -39.838055
v 2.206766 -4.938956 -39.838055
v 2.078728 -5.361041 -39.838055
v 1.870805 -5.750036 -39.838055
v 1.590988 -6.090993 -39.838055
v 1.250030 -6.370810 -39.838055
v 0.861035 -6.578731 -39.838055
v 0.438950 -6.706768 -39.838055
vn -0.0973 -0.9876 -0.1234
vn -0.2881 -0.9496 -0.1234
vn -0.4678 -0.8752 -0.1234
vn -0.6295 -0.7671 -0.1234
vn -0.7671 -0.6295 -0.1234
vn -0.8752 -0.4678 -0.1234
vn -0.9496 -0.2881 -0.1234
vn -0.9876 -0.0973 -0.1234
vn -0.9876 0.0973 -0.1234
vn -0.9496 0.2881 -0.1234
vn -0.8752 0.4678 -0.1234
vn -0.7671 0.6295 -0.1234
vn -0.6295 0.7671 -0.1234
vn -0.4678 0.8752 -0.1234
vn -0.2881 0.9496 -0.1234
vn -0.0973 0.9876 -0.1234
vn 0.0973 0.9876 -0.1234
vn 0.2881 0.9496 -0.1234
vn 0.4678 0.8752 -0.1234
vn 0.6295 0.7671 -0.1234
vn 0.7671 0.6295 -0.1234
vn 0.8752 0.4678 -0.1234
vn 0.9496 0.2881 -0.1234
vn 0.9876 0.0973 -0.1234
vn 0.9876 -0.0973 -0.1234
vn 0.9496 -0.2881 -0.1234
vn 0.8752 -0.4678 -0.1234
vn 0.7671 -0.6295 -0.1234
vn 0.6295 -0.7671 -0.1234
vn 0.4678 -0.8752 -0.1234
vn 0.0000 0.0000 1.0000
vn 0.2881 -0.9496 -0.1234
vn 0.0973 -0.9876 -0.1234
vn 0.0000 0.0000 -1.0000
vn 0.6344 0.7730 0.0000
vn -0.2903 0.9569 0.0000
vn -0.2903 -0.9569 0.0000
vn 0.7730 0.6344 0.0000
vn -0.0980 0.9952 0.0000
vn -0.4714 -0.8819 0.0000
vn 0.8819 0.4714 0.0000
vn -0.6344 -0.7730 0.0000
vn 0.9569 0.2903 0.0000
vn -0.7730 -0.6344 0.0000
vn 0.9952 0.0980 0.0000
vn -0.8819 -0.4714 0.0000
vn 0.9952 -0.0980 0.0000
vn -0.9569 -0.2903 0.0000
vn 0.9569 -0.2903 0.0000
vn -0.9952 -0.0980 0.0000
vn 0.8819 -0.4714 0.0000
vn -0.9952 0.0980 0.0000
vn 0.7730 -0.6344 0.0000
vn -0.9569 0.2903 0.0000
vn 0.6344 -0.7730 0.0000
vn -0.8819 0.4714 0.0000
vn 0.4714 -0.8819 -0.0000
vn 0.0980 0.9952 0.0000
vn -0.7730 0.6344 0.0000
vn 0.2903 -0.9569 0.0000
vn 0.2903 0.9569 0.0000
vn -0.6344 0.7730 0.0000
vn 0.0980 -0.9952 0.0000
vn 0.4714 0.8819 0.0000
vn -0.4714 0.8819 0.0000
vn -0.0980 -0.9952 0.0000
vn -0.0001 0.0000 -1.0000
vn 0.0001 0.0000 -1.0000
usemtl metal
s off
f 2//1 3//1 1//1
f 4//2 5//2 3//2
f 6//3 7//3 5//3
f 8//4 9//4 7//4
f 10//5 11//5 9//5
f 12//6 13//6 11//6
f 14//7 15//7 13//7
f 16//8 17//8 15//8
f 18//9 19//9 17//9
f 20//10 21//10 19//10
f 22//11 23//11 21//11
f 24//12 25//12 23//12
f 26//13 27//13 25//13
f 28//14 29//14 27//14
f 30//15 31//15 29//15
f 32//16 33//16 31//16
f 34//17 35//17 33//17
f 36//18 37//18 35//18
f 38//19 39//19 37//19
f 40//20 41//20 39//20
f 42//21 43//21 41//21
f 43//22 46//22 45//22
f 46//23 47//23 45//23
f 48//24 49//24 47//24
f 50//25 51//25 49//25
f 52//26 53//26 51//26
f 54//27 55//27 53//27
f 56//28 57//28 55//28
f 58//29 59//29 57//29
f 60//30 61//30 59//30
f 38//31 14//31 6//31
f 62//32 63//32 61//32
f 64//33 1//33 63//33
f 15//34 71//34 13//34
f 69//35 100//35 68//35
f 33//34 80//34 31//34
f 51//34 89//34 49//34
f 5//34 68//34 67//34
f 23//34 77//34 76//34
f 41//34 86//34 85//34
f 61//34 94//34 59//34
f 15//34 73//34 72//34
f 35//34 81//34 33//34
f 53//34 90//34 51//34
f 9//34 68//34 7//34
f 25//34 78//34 77//34
f 45//34 86//34 43//34
f 63//34 95//34 61//34
f 17//34 74//34 73//34
f 37//34 82//34 35//34
f 53//34 92//34 91//34
f 11//34 69//34 9//34
f 27//34 79//34 78//34
f 47//34 87//34 45//34
f 1//34 66//34 65//34
f 63//34 65//34 96//34
f 19//34 75//34 74//34
f 37//34 84//34 83//34
f 57//34 92//34 55//34
f 13//34 70//34 11//34
f 31//34 79//34 29//34
f 47//34 89//34 88//34
f 5//34 66//34 3//34
f 21//34 76//34 75//34
f 41//34 84//34 39//34
f 59//34 93//34 57//34
f 96//36 127//36 95//36
f 83//37 114//37 82//37
f 69//38 102//38 101//38
f 65//39 128//39 96//39
f 84//40 115//40 83//40
f 71//41 102//41 70//41
f 85//42 116//42 84//42
f 72//43 103//43 71//43
f 86//44 117//44 85//44
f 73//45 104//45 72//45
f 87//46 118//46 86//46
f 74//47 105//47 73//47
f 88//48 119//48 87//48
f 75//49 106//49 74//49
f 89//50 120//50 88//50
f 76//51 107//51 75//51
f 90//52 121//52 89//52
f 77//53 108//53 76//53
f 91//54 122//54 90//54
f 78//55 109//55 77//55
f 92//56 123//56 91//56
f 79//57 110//57 78//57
f 66//58 97//58 65//58
f 93//59 124//59 92//59
f 80//60 111//60 79//60
f 67//61 98//61 66//61
f 94//62 125//62 93//62
f 81//63 112//63 80//63
f 68//64 99//64 67//64
f 95//65 126//65 94//65
f 81//66 114//66 113//66
f 2//1 4//1 3//1
f 4//2 6//2 5//2
f 6//3 8//3 7//3
f 8//4 10//4 9//4
f 10//5 12//5 11//5
f 12//6 14//6 13//6
f 14//7 16//7 15//7
f 16//8 18//8 17//8
f 18//9 20//9 19//9
f 20//10 22//10 21//10
f 22//11 24//11 23//11
f 24//12 26//12 25//12
f 26//13 28//13 27//13
f 28//14 30//14 29//14
f 30//15 32//15 31//15
f 32//16 34//16 33//16
f 34//17 36//17 35//17
f 36//18 38//18 37//18
f 38//19 40//19 39//19
f 40//20 42//20 41//20
f 42//21 44//21 43//21
f 43//22 44//22 46//22
f 46//23 48//23 47//23
f 48//24 50//24 49//24
f 50//25 52//25 51//25
f 52//26 54//26 53//26
f 54//27 56//27 55//27
f 56//28 58//28 57//28
f 58//29 60//29 59//29
f 60//30 62//30 61//30
f 6//31 4//31 62//31
f 2//31 64//31 62//31
f 62//31 60//31 54//31
f 58//31 56//31 54//31
f 54//31 52//31 46//31
f 50//31 48//31 46//31
f 46//31 44//31 38//31
f 42//31 40//31 38//31
f 38//31 36//31 34//31
f 34//31 32//31 38//31
f 30//31 28//31 22//31
f 26//31 24//31 22//31
f 22//31 20//31 18//31
f 18//31 16//31 22//31
f 14//31 12//31 10//31
f 10//31 8//31 14//31
f 4//31 2//31 62//31
f 60//31 58//31 54//31
f 52//31 50//31 46//31
f 44//31 42//31 38//31
f 38//31 32//31 30//31
f 28//31 26//31 22//31
f 22//31 16//31 14//31
f 14//31 8//31 6//31
f 6//31 62//31 38//31
f 54//31 46//31 38//31
f 38//31 30//31 22//31
f 22//31 14//31 38//31
f 62//31 54//31 38//31
f 62//32 64//32 63//32
f 64//33 2//33 1//33
f 15//34 72//34 71//34
f 69//35 101//35 100//35
f 33//34 81//34 80//34
f 51//34 90//34 89//34
f 5//34 7//34 68//34
f 23//34 25//34 77//34
f 41//34 43//34 86//34
f 61//34 95//34 94//34
f 15//34 17//34 73//34
f 35//34 82//34 81//34
f 53//34 91//34 90//34
f 9//34 69//34 68//34
f 25//34 27//34 78//34
f 45//34 87//34 86//34
f 63//34 96//34 95//34
f 17//34 19//34 74//34
f 37//34 83//34 82//34
f 53//34 55//34 92//34
f 11//34 70//34 69//34
f 27//34 29//34 79//34
f 47//34 88//34 87//34
f 1//34 3//34 66//34
f 63//34 1//34 65//34
f 19//34 21//34 75//34
f 37//34 39//34 84//34
f 57//34 93//34 92//34
f 13//34 71//34 70//34
f 31//34 80//34 79//34
f 47//34 49//34 89//34
f 5//34 67//34 66//34
f 21//34 23//34 76//34
f 41//34 85//34 84//34
f 59//34 94//34 93//34
f 96//36 128//36 127//36
f 83//37 115//37 114//37
f 69//38 70//38 102//38
f 65//39 97//39 128//39
f 84//40 116//40 115//40
f 71//41 103//41 102//41
f 85//42 117//42 116//42
f 72//43 104//43 103//43
f 86//44 118//44 117//44
f 73//45 105//45 104//45
f 87//46 119//46 118//46
f 74//47 106//47 105//47
f 88//48 120//48 119//48
f 75//49 107//49 106//49
f 89//50 121//50 120//50
f 76//51 108//51 107//51
f 90//52 122//52 121//52
f 77//53 109//53 108//53
f 91//54 123//54 122//54
f 78//55 110//55 109//55
f 92//56 124//56 123//56
f 79//57 111//57 110//57
f 66//58 98//58 97//58
f 93//59 125//59 124//59
f 80//60 112//60 111//60
f 67//61 99//61 98//61
f 94//62 126//62 125//62
f 81//63 113//63 112//63
f 68//64 100//64 99//64
f 95//65 127//65 126//65
f 81//66 82//66 114//66
usemtl flame
f 112//34 120//34 104//34
f 128//34 97//34 98//34
f 98//34 99//34 128//34
f 100//67 101//67 102//67
f 102//34 103//34 100//34
f 104//34 105//34 106//34
f 106//68 107//68 104//68
f 108//67 109//67 110//67
f 110//34 111//34 112//34
f 112//34 113//34 114//34
f 114//34 115//34 116//34
f 116//34 117//34 120//34
f 118//68 119//68 120//68
f 120//34 121//34 122//34
f 122//67 123//67 124//67
f 124//34 125//34 128//34
f 126//34 127//34 128//34
f 128//34 99//34 100//34
f 100//34 103//34 104//34
f 104//34 107//34 108//34
f 108//34 110//34 104//34
f 112//34 114//34 120//34
f 117//34 118//34 120//34
f 120//34 122//34 128//34
f 125//34 126//34 128//34
f 128//34 100//34 104//34
f 104//34 110//34 112//34
f 114//34 116//34 120//34
f 122//34 124//34 128//34
f 128//34 104//34 120//34
o Cube_Cube.001
v 10.000007 0.000000 -19.999996
v 10.000007 -8.000000 -19.999996
v 7.999994 0.000000 7.000001
v 7.999996 -3.800000 5.000002
v 5.000009 0.000000 -34.999996
v 5.000009 -8.000000 -34.999996
v 20.000008 -5.000000 -25.499994
v 20.000008 -0.000000 -25.499994
v 11.000010 -5.000000 -40.000000
v 11.000010 -0.000000 -40.000000
v 5.365883 0.000000 9.317058
v 6.365884 -4.458528 6.987793
v 6.707367 0.000000 -19.999998
v 7.707367 -9.658527 -19.999998
v 3.353690 0.000000 -35.000000
v 4.353690 -9.658527 -35.000000
v 13.657619 -6.302716 -21.111683
v 13.657619 -0.000000 -21.111683
v 8.394576 -6.302716 -37.828800
v 8.394576 -0.000000 -37.828800
v 17.657619 -2.302716 -15.972227
v 17.657619 -0.000000 -15.972227
v 0.000007 0.000000 -20.000000
v 0.000007 -10.000000 -20.000000
v -0.000004 0.000000 12.000000
v -0.000003 -4.800000 9.000000
v -9.999993 0.000000 -20.000004
v -9.999993 -8.000000 -20.000004
v -7.999999 0.000000 6.999996
v -7.999999 -3.800000 4.999997
v 0.000011 0.000000 -35.000000
v 0.000011 -10.000000 -35.000000
v -4.999986 0.000000 -34.999996
v -4.999986 -8.000000 -34.999996
v -19.999992 -5.000000 -25.500006
v -19.999992 -0.000000 -25.500006
v -10.999984 -5.000000 -40.000008
v -10.999984 -0.000000 -40.000008
v -5.365889 0.000000 9.317054
v -6.365889 -4.458528 6.987789
v -6.707354 0.000000 -20.000002
v -7.707354 -9.658527 -20.000002
v -3.353667 0.000000 -35.000000
v -4.353667 -9.658527 -35.000000
v -13.657605 -6.302716 -21.111691
v -13.657605 -0.000000 -21.111691
v -8.394551 -6.302716 -37.828808
v -8.394551 -0.000000 -37.828808
v -17.657608 -2.302716 -15.972239
v -17.657608 -0.000000 -15.972239
vn 0.0434 -0.9806 0.1911
vn -0.1080 -0.9785 0.1755
vn 0.1080 -0.9785 0.1755
vn -0.0434 -0.9806 0.1911
vn 0.6416 -0.2372 0.7294
vn 0.9965 -0.0389 0.0738
vn 0.5690 0.0000 0.8223
vn 0.0000 1.0000 0.0000
vn 0.0000 0.0000 -1.0000
vn 0.0443 -0.9990 -0.0099
vn 0.8496 0.0000 -0.5274
vn 0.1661 -0.9847 -0.0523
vn -0.6402 0.0000 -0.7682
vn 0.5752 -0.7952 -0.1917
vn 0.5765 -0.7970 0.1800
vn 0.3904 -0.4880 0.7807
vn 0.3851 -0.9139 -0.1284
vn 0.2908 0.0000 0.9568
vn -0.7892 0.0000 0.6142
vn 0.4093 -0.8466 0.3403
vn 0.9711 0.0000 0.2387
vn 1.0000 0.0000 0.0000
vn -0.6416 -0.2372 0.7294
vn -0.9965 -0.0389 0.0738
vn -0.5690 0.0000 0.8223
vn -0.0443 -0.9990 -0.0099
vn -0.8496 0.0000 -0.5274
vn -0.1661 -0.9847 -0.0523
vn 0.6402 0.0000 -0.7682
vn -0.5752 -0.7952 -0.1918
vn -0.5518 -0.8134 0.1842
vn -0.3904 -0.4880 0.7807
vn -0.3851 -0.9139 -0.1284
vn -0.2908 0.0000 0.9568
vn 0.7892 0.0000 0.6142
vn -0.4093 -0.8466 0.3403
vn -0.9711 0.0000 0.2387
vn 0.7843 -0.2890 0.5490
vn 0.9968 0.0000 0.0797
vn 0.0782 -0.9969 0.0000
vn 0.3072 -0.9323 -0.1907
vn 0.9122 -0.3555 -0.2039
vn 0.5518 -0.8134 0.1842
vn 0.2966 -0.3891 0.8721
vn 0.3658 -0.9235 -0.1152
vn -0.7843 -0.2890 0.5490
vn -0.9968 0.0000 0.0797
vn -0.0782 -0.9969 -0.0000
vn -0.3072 -0.9323 -0.1907
vn -0.9122 -0.3555 -0.2039
vn -0.5765 -0.7970 0.1800
vn -0.2966 -0.3891 0.8721
vn -0.3658 -0.9235 -0.1152
usemtl window
s off
f 140//69 152//69 142//69
f 168//70 152//70 154//70
f 140//71 154//71 152//71
f 168//72 170//72 152//72
usemtl body
f 140//73 131//73 139//73
f 132//74 129//74 131//74
f 146//75 135//75 136//75
f 131//76 141//76 139//76
f 143//77 160//77 159//77
f 141//76 133//76 143//76
f 152//78 144//78 142//78
f 135//79 138//79 136//79
f 147//80 135//80 145//80
f 148//76 136//76 138//76
f 148//81 137//81 147//81
f 142//82 134//82 130//82
f 151//76 143//76 159//76
f 134//77 143//77 133//77
f 132//83 142//83 130//83
f 139//76 151//76 153//76
f 154//84 139//84 153//84
f 133//81 147//81 134//81
f 133//76 146//76 148//76
f 134//85 145//85 130//85
f 129//86 145//86 146//86
f 146//87 149//87 150//87
f 149//88 145//88 135//88
f 146//76 150//76 136//76
f 149//89 136//89 150//89
f 151//90 154//90 152//90
f 157//91 168//91 167//91
f 155//92 158//92 157//92
f 174//93 163//93 173//93
f 169//76 157//76 167//76
f 171//77 160//77 172//77
f 160//90 151//90 152//90
f 169//76 161//76 155//76
f 172//94 152//94 170//94
f 166//95 163//95 164//95
f 163//96 175//96 173//96
f 176//76 164//76 174//76
f 165//97 176//97 175//97
f 162//98 170//98 156//98
f 151//76 171//76 169//76
f 171//77 162//77 161//77
f 158//99 170//99 168//99
f 151//76 167//76 153//76
f 167//100 154//100 153//100
f 175//97 161//97 162//97
f 161//76 174//76 155//76
f 173//101 162//101 156//101
f 155//102 173//102 156//102
f 174//103 177//103 173//103
f 177//104 163//104 173//104
f 174//76 164//76 178//76
f 177//105 164//105 163//105
f 140//106 132//106 131//106
f 132//107 130//107 129//107
f 146//75 145//75 135//75
f 131//76 129//76 141//76
f 143//77 144//77 160//77
f 141//76 129//76 133//76
f 152//108 160//108 144//108
f 135//79 137//79 138//79
f 147//109 137//109 135//109
f 148//76 146//76 136//76
f 148//81 138//81 137//81
f 142//110 144//110 134//110
f 151//76 141//76 143//76
f 134//77 144//77 143//77
f 132//111 140//111 142//111
f 139//76 141//76 151//76
f 154//112 140//112 139//112
f 133//81 148//81 147//81
f 133//76 129//76 146//76
f 134//113 147//113 145//113
f 129//86 130//86 145//86
f 146//87 145//87 149//87
f 149//89 135//89 136//89
f 151//90 153//90 154//90
f 157//114 158//114 168//114
f 155//115 156//115 158//115
f 174//93 164//93 163//93
f 169//76 155//76 157//76
f 171//77 159//77 160//77
f 160//90 159//90 151//90
f 169//76 171//76 161//76
f 172//116 160//116 152//116
f 166//95 165//95 163//95
f 163//117 165//117 175//117
f 176//76 166//76 164//76
f 165//97 166//97 176//97
f 162//118 172//118 170//118
f 151//76 159//76 171//76
f 171//77 172//77 162//77
f 158//119 156//119 170//119
f 151//76 169//76 167//76
f 167//120 168//120 154//120
f 175//97 176//97 161//97
f 161//76 176//76 174//76
f 173//121 175//121 162//121
f 155//102 174//102 173//102
f 174//103 178//103 177//103
f 177//105 178//105 164//105
